{"asset":{"generator":"FBX2glTF","version":"2.0"},"scene":0,"buffers":[{"byteLength":254128,"uri":"data:application/octet-stream;base64,"}],"bufferViews":[{"buffer":0,"byteLength":28992,"byteOffset":0,"target":34963},{"buffer":0,"byteLength":36876,"byteOffset":28992,"target":34962},{"buffer":0,"byteLength":36876,"byteOffset":65868,"target":34962},{"buffer":0,"byteLength":24584,"byteOffset":102744,"target":34962},{"buffer":0,"byteLength":24584,"byteOffset":127328,"target":34962},{"buffer":0,"byteLength":24584,"byteOffset":151912,"target":34962},{"buffer":0,"byteLength":49168,"byteOffset":176496,"target":34962},{"buffer":0,"byteLength":1848,"byteOffset":225664,"target":34963},{"buffer":0,"byteLength":2184,"byteOffset":227512,"target":34962},{"buffer":0,"byteLength":2184,"byteOffset":229696,"target":34962},{"buffer":0,"byteLength":1456,"byteOffset":231880,"target":34962},{"buffer":0,"byteLength":1456,"byteOffset":233336,"target":34962},{"buffer":0,"byteLength":1456,"byteOffset":234792,"target":34962},{"buffer":0,"byteLength":2912,"byteOffset":236248,"target":34962},{"buffer":0,"byteLength":1848,"byteOffset":239160,"target":34963},{"buffer":0,"byteLength":2184,"byteOffset":241008,"target":34962},{"buffer":0,"byteLength":2184,"byteOffset":243192,"target":34962},{"buffer":0,"byteLength":1456,"byteOffset":245376,"target":34962},{"buffer":0,"byteLength":1456,"byteOffset":246832,"target":34962},{"buffer":0,"byteLength":1456,"byteOffset":248288,"target":34962},{"buffer":0,"byteLength":2912,"byteOffset":249744,"target":34962},{"buffer":0,"byteLength":1472,"byteOffset":252656}],"scenes":[{"name":"Root Scene","nodes":[0]}],"accessors":[{"componentType":5123,"type":"SCALAR","count":14496,"bufferView":0,"byteOffset":0},{"componentType":5126,"type":"VEC3","count":3073,"bufferView":1,"byteOffset":0,"min":[-0.259260982275009,-0.310422956943512,-0.00178237003274262],"max":[0.259260982275009,0.312601983547211,0.577494978904724]},{"componentType":5126,"type":"VEC3","count":3073,"bufferView":2,"byteOffset":0},{"componentType":5126,"type":"VEC2","count":3073,"bufferView":3,"byteOffset":0},{"componentType":5126,"type":"VEC2","count":3073,"bufferView":4,"byteOffset":0},{"componentType":5123,"type":"VEC4","count":3073,"bufferView":5,"byteOffset":0},{"componentType":5126,"type":"VEC4","count":3073,"bufferView":6,"byteOffset":0},{"componentType":5123,"type":"SCALAR","count":924,"bufferView":7,"byteOffset":0},{"componentType":5126,"type":"VEC3","count":182,"bufferView":8,"byteOffset":0,"min":[-0.120057001709938,-0.168632999062538,0.43617194890976],"max":[0.120057001709938,-0.0196642987430096,0.57163393497467]},{"componentType":5126,"type":"VEC3","count":182,"bufferView":9,"byteOffset":0},{"componentType":5126,"type":"VEC2","count":182,"bufferView":10,"byteOffset":0},{"componentType":5126,"type":"VEC2","count":182,"bufferView":11,"byteOffset":0},{"componentType":5123,"type":"VEC4","count":182,"bufferView":12,"byteOffset":0},{"componentType":5126,"type":"VEC4","count":182,"bufferView":13,"byteOffset":0},{"componentType":5123,"type":"SCALAR","count":924,"bufferView":14,"byteOffset":0},{"componentType":5126,"type":"VEC3","count":182,"bufferView":15,"byteOffset":0,"min":[-0.121514998376369,-0.169168010354042,0.437240928411484],"max":[0.121514998376369,-0.0197745002806187,0.572317957878113]},{"componentType":5126,"type":"VEC3","count":182,"bufferView":16,"byteOffset":0},{"componentType":5126,"type":"VEC2","count":182,"bufferView":17,"byteOffset":0},{"componentType":5126,"type":"VEC2","count":182,"bufferView":18,"byteOffset":0},{"componentType":5123,"type":"VEC4","count":182,"bufferView":19,"byteOffset":0},{"componentType":5126,"type":"VEC4","count":182,"bufferView":20,"byteOffset":0},{"componentType":5126,"type":"MAT4","count":23,"bufferView":21,"byteOffset":0}],"images":[{"name":"pm0158_00_Body1.png","uri":"data:application/octet-stream;base64,"},{"name":"pm0158_00_Eye1.png","uri":"data:application/octet-stream;base64,"},{"name":"pm0158_00_Iris1.png","uri":"data:application/octet-stream;base64,"}],"samplers":[{}],"textures":[{"name":"Map #28","sampler":0,"source":0},{"name":"Map #29","sampler":0,"source":1},{"name":"Map #30","sampler":0,"source":2}],"materials":[{"name":"Material #128","alphaMode":"OPAQUE","extras":{"fromFBX":{"shadingModel":"<unknown>","isTruePBR":false}},"pbrMetallicRoughness":{"baseColorTexture":{"index":0,"texCoord":0},"baseColorFactor":[1,1,1,1],"metallicFactor":0.200000002980232,"roughnessFactor":0.800000011920929}},{"name":"Material #129","alphaMode":"OPAQUE","extras":{"fromFBX":{"shadingModel":"<unknown>","isTruePBR":false}},"pbrMetallicRoughness":{"baseColorTexture":{"index":1,"texCoord":0},"baseColorFactor":[1,1,1,1],"metallicFactor":0.200000002980232,"roughnessFactor":0.800000011920929}},{"name":"Material #130","alphaMode":"BLEND","extras":{"fromFBX":{"shadingModel":"<unknown>","isTruePBR":false}},"pbrMetallicRoughness":{"baseColorTexture":{"index":2,"texCoord":0},"baseColorFactor":[1,1,1,1],"metallicFactor":0.200000002980232,"roughnessFactor":0.800000011920929}}],"meshes":[{"name":"Totodile","primitives":[{"material":0,"mode":4,"attributes":{"JOINTS_0":5,"NORMAL":2,"POSITION":1,"TEXCOORD_0":3,"TEXCOORD_1":4,"WEIGHTS_0":6},"indices":0},{"material":1,"mode":4,"attributes":{"JOINTS_0":12,"NORMAL":9,"POSITION":8,"TEXCOORD_0":10,"TEXCOORD_1":11,"WEIGHTS_0":13},"indices":7},{"material":2,"mode":4,"attributes":{"JOINTS_0":19,"NORMAL":16,"POSITION":15,"TEXCOORD_0":17,"TEXCOORD_1":18,"WEIGHTS_0":20},"indices":14}]}],"skins":[{"joints":[4,18,21,6,27,28,22,7,23,30,12,32,13,33,34,35,24,25,19,8,10,14,16],"inverseBindMatrices":21,"skeleton":4}],"nodes":[{"name":"RootNode","translation":[0,0,0],"rotation":[0,0,0,1],"scale":[1,1,1],"children":[1,39]},{"name":"pm0158_00","translation":[0,0,0],"rotation":[-1.56958236630089e-7,0,0,1],"scale":[2.53999996185303,2.53999996185303,2.53999996185303],"children":[2,37,38]},{"name":"Origin","translation":[0,0,0],"rotation":[-2.64697796016969e-23,0,0,1],"scale":[1,1,1],"children":[3]},{"name":"Waist","translation":[0,0.221685007214546,0.00476713012903929],"rotation":[0.0538792684674263,-0.0538790747523308,0.705052375793457,0.705049812793732],"scale":[1,1,1],"children":[4,21]},{"name":"Hips","translation":[0,0,0],"rotation":[0.0761966556310654,9.6586191489223e-8,0.99709278345108,-0.00000126390580135194],"scale":[0.999999940395355,1,0.999999940395355],"children":[5,6,12,18]},{"name":"EndHips","translation":[0.212340906262398,-9.99949367752606e-9,-5.55111499904869e-19],"rotation":[2.35370533827051e-14,1.17950126662242e-12,-2.27373729653341e-13,1],"scale":[0.999999761581421,1,0.999999761581421]},{"name":"LThigh","translation":[0.0688962563872337,0.140336945652962,0.0256770886480808],"rotation":[-0.169572561979294,-0.0453463159501553,0.157242700457573,0.971835196018219],"scale":[0.999999761581421,1,0.999999701976776],"children":[7]},{"name":"LLeg","translation":[0.0581415146589279,0.00062222481938079,-1.90734859017994e-8],"rotation":[-7.33078522330288e-8,0.399477273225784,5.63260904584695e-8,0.916743099689484],"scale":[1.00000023841858,1,1.00000011920929],"children":[8]},{"name":"LFoot","translation":[0.0695038065314293,-2.8610228852699e-8,-7.15255721317476e-9],"rotation":[3.9474420532315e-7,0.907633543014526,-9.09208495158964e-7,-0.419763416051865],"scale":[1.00000035762787,1.00000011920929,1.00000023841858],"children":[9,10]},{"name":"EndLFoot","translation":[0.0822843313217163,-1.90734859017994e-8,-9.53674295089968e-9],"rotation":[-6.80878699623101e-17,-2.79396705771262e-9,-1.62981415030572e-8,1],"scale":[1.00000023841858,1.00000011920929,1.00000023841858]},{"name":"LToe","translation":[0.0888824090361595,9.53674295089968e-9,-0.0217329058796167],"rotation":[-6.80878699623101e-17,-2.79396705771262e-9,-1.62981415030572e-8,1],"scale":[1.00000023841858,1.00000011920929,1.00000023841858],"children":[11]},{"name":"EndLToe","translation":[0.0603226087987423,4.76837129781416e-8,4.76837147544984e-9],"rotation":[-1.30104260698261e-17,-2.79396772384644e-9,-2.79396772384644e-9,1],"scale":[1,1,1]},{"name":"RThigh","translation":[0.068896047770977,-0.140336975455284,0.0256770942360163],"rotation":[0.169572487473488,-0.0453462637960911,-0.157242611050606,0.971835196018219],"scale":[0.999999821186066,0.999999821186066,0.999999701976776],"children":[13]},{"name":"RLeg","translation":[0.0581418871879578,-0.000622634892351925,1.90734851912566e-7],"rotation":[7.52413509275129e-9,0.399477183818817,-3.27869398297764e-9,0.916743159294128],"scale":[1.00000011920929,1,1],"children":[14]},{"name":"RFoot","translation":[0.0695039182901382,5.05447360410471e-7,-3.2424927098873e-7],"rotation":[6.2394622091233e-7,0.907633304595947,-5.32316221324436e-7,-0.419763922691345],"scale":[1,1,1],"children":[15,16]},{"name":"EndRFoot","translation":[0.0822844356298447,-2.8610228852699e-8,-9.53674295089968e-9],"rotation":[8.54351510441925e-17,-4.6566133171666e-9,1.90921145559741e-8,1],"scale":[0.99999988079071,0.99999988079071,1.00000011920929]},{"name":"RToe","translation":[0.0888827219605446,-5.53131087599468e-7,-0.0217331182211637],"rotation":[8.54351510441925e-17,-4.6566133171666e-9,1.90921145559741e-8,1],"scale":[0.99999988079071,0.99999988079071,1.00000011920929],"children":[17]},{"name":"EndRToe","translation":[0.060322493314743,1.90734859017994e-8,-1.19209282445354e-8],"rotation":[1.4901157641134e-8,-2.79396772384644e-9,3.25962901115417e-9,1],"scale":[1,1.00000023841858,1.00000011920929]},{"name":"Tail1","translation":[0.102472953498363,2.91038298062124e-13,-0.0957007482647896],"rotation":[-2.87062619008793e-7,0.574125349521637,4.09383716259981e-7,0.818767428398132],"scale":[0.999999761581421,1,0.999999761581421],"children":[19]},{"name":"Tail2","translation":[0.136102020740509,-1.45519149031062e-13,1.90734859017994e-8],"rotation":[-5.42630481834786e-22,-1.4901157641134e-8,-5.29395491059742e-22,1],"scale":[1.00000023841858,1,1.00000023841858],"children":[20]},{"name":"EndTail2","translation":[0.107219062745571,-1.45519149031062e-13,-9.53674295089968e-9],"rotation":[3.36166039382837e-21,1.4901157641134e-8,-2.27373621233123e-13,1],"scale":[1.00000023841858,1,1.00000023841858]},{"name":"Spine","translation":[0,0,0],"rotation":[-2.96952993145135e-23,-8.4077907859489e-45,2.78564935745247e-22,1],"scale":[1,1,1],"children":[22,27,32]},{"name":"LShoulder","translation":[0.0755360797047615,-0.101334027945995,0.011907696723938],"rotation":[-0.353901445865631,0.151447221636772,-0.756448268890381,0.52877551317215],"scale":[0.99999988079071,0.999999940395355,0.99999988079071],"children":[23]},{"name":"LArm","translation":[0.0250942036509514,-3.55271359939116e-17,0],"rotation":[5.82867087928207e-16,-2.23517417907715e-8,2.23517417907715e-8,1],"scale":[1,1,1],"children":[24]},{"name":"LForeArm","translation":[0.0534814931452274,0,1.90734859017994e-8],"rotation":[7.45058059692383e-8,-3.72529029846191e-8,2.23517453434852e-8,1],"scale":[1,1,0.999999940395355],"children":[25]},{"name":"LHand","translation":[0.0496681220829487,1.90734859017994e-8,3.81469718035987e-8],"rotation":[1.49011611938477e-8,-7.45058059692383e-9,7.45058059692383e-9,1],"scale":[1,1,1],"children":[26]},{"name":"EndLHand","translation":[0.0517517477273941,0,0],"rotation":[-2.98023223876953e-8,-2.23517453434852e-8,1.49011629702045e-8,1],"scale":[0.99999988079071,1,0.999999940395355]},{"name":"Neck","translation":[0.118583865463734,-1.00000763225694e-8,2.38418573772492e-9],"rotation":[-2.00470167538696e-15,0.0176225882023573,1.13739828102796e-13,0.99984472990036],"scale":[1,1,1],"children":[28]},{"name":"Head","translation":[0.0478985197842121,2.91038298062124e-13,4.76837147544984e-9],"rotation":[-1.4210854715202e-14,-1.61558751907862e-27,1.1368686482667e-13,1],"scale":[0.999999761581421,1,0.999999761581421],"children":[29,30]},{"name":"EndHead","translation":[0.224666938185692,2.00000069838779e-8,-7.15255721317476e-9],"rotation":[3.51883933885007e-23,7.45058059692383e-9,4.47645519907326e-22,1],"scale":[1,1,1]},{"name":"Jaw","translation":[0.0611442551016808,1.45519149031062e-13,0.013757511973381],"rotation":[0.00000187609691693069,-0.763529896736145,0.00000181994573722477,0.645772457122803],"scale":[1,1,1],"children":[31]},{"name":"EndJaw","translation":[0.245910063385963,-2.91038298062124e-13,-3.81469718035987e-8],"rotation":[9.09494701772928e-13,-2.77555756156289e-17,-1.13686837721616e-13,1],"scale":[1,1,1]},{"name":"RShoulder","translation":[0.0755363628268242,0.101333931088448,0.0119076864793897],"rotation":[0.353901088237762,0.151446685194969,0.756448328495026,0.528775811195374],"scale":[1.00000011920929,0.999999821186066,1],"children":[33]},{"name":"RArm","translation":[0.0250943042337894,1.71661369563481e-7,-1.71661369563481e-7],"rotation":[2.98023223876953e-8,-7.45058059692383e-9,-7.45058059692383e-9,1],"scale":[1,1,1],"children":[34]},{"name":"RForeArm","translation":[0.053481288254261,4.00543200385073e-7,-1.71661369563481e-7],"rotation":[2.98023223876953e-8,7.4505792646562e-9,-7.45057970874541e-9,1],"scale":[1.00000011920929,1,1],"children":[35]},{"name":"RHand","translation":[0.0496683493256569,1.90734859017994e-8,5.72204577053981e-8],"rotation":[-1.49011647465613e-8,-2.22044657864591e-16,1.49011629702045e-8,1],"scale":[0.99999988079071,0.999999821186066,1],"children":[36]},{"name":"EndRHand","translation":[0.0517515353858471,-5.14984094479587e-7,3.0517577442879e-7],"rotation":[1.13737334226041e-24,7.45058059692383e-9,7.45058059692383e-9,1],"scale":[1,1,1]},{"name":"pm0158_00_BodySkin","translation":[0,0,0],"rotation":[-2.64697796016969e-23,0,0,1],"scale":[1,1,1]},{"name":"pm0158_00_IrisSkin","translation":[0,0,0],"rotation":[-2.64697796016969e-23,0,0,1],"scale":[1,1,1]},{"name":"Totodile","translation":[0,0,0],"rotation":[-0.70710676908493,0,0,0.70710676908493],"scale":[2.53999996185303,2.53999996185303,2.53999996185303],"mesh":0,"skin":0}]}